<svg width="30" height="30" viewBox="0 0 30 30" fill="none" xmlns="http://www.w3.org/2000/svg">
<path d="M11.2202 21.3504C11.2202 21.9912 10.9657 22.6058 10.5126 23.0589C10.0594 23.512 9.44486 23.7666 8.80405 23.7666C8.16323 23.7666 7.54866 23.512 7.09554 23.0589C6.64241 22.6058 6.38785 21.9912 6.38785 21.3504C6.38785 20.7096 6.64241 20.095 7.09554 19.6419C7.54866 19.1888 8.16323 18.9342 8.80405 18.9342C9.44486 18.9342 10.0594 19.1888 10.5126 19.6419C10.9657 20.095 11.2202 20.7096 11.2202 21.3504Z" stroke="#ABAAAA" stroke-width="1.7" stroke-linecap="round" stroke-linejoin="round"/>
<path d="M23.3013 21.3504C23.3013 21.9912 23.0467 22.6058 22.5936 23.0589C22.1405 23.512 21.5259 23.7666 20.8851 23.7666C20.2443 23.7666 19.6297 23.512 19.1766 23.0589C18.7235 22.6058 18.4689 21.9912 18.4689 21.3504C18.4689 20.7096 18.7235 20.095 19.1766 19.6419C19.6297 19.1888 20.2443 18.9342 20.8851 18.9342C21.5259 18.9342 22.1405 19.1888 22.5936 19.6419C23.0467 20.095 23.3013 20.7096 23.3013 21.3504Z" stroke="#ABAAAA" stroke-width="1.7" stroke-linecap="round" stroke-linejoin="round"/>
<path d="M6.38785 21.3505H3.97165V14.1019M3.97165 14.1019L6.38785 8.0614H11.8243H17.2607L22.0931 14.1019M3.97165 14.1019H22.0931M22.0931 14.1019H23.3012C23.9421 14.1019 24.5566 14.3565 25.0098 14.8096C25.4629 15.2627 25.7174 15.8773 25.7174 16.5181V21.3505H23.3012M18.4688 21.3505H11.2202M14.8445 14.1019V8.0614" stroke="#ABAAAA" stroke-width="1.7" stroke-linecap="round" stroke-linejoin="round"/>
</svg>
